/* XPM */
static char *result[] = {
/* columns rows colors chars-per-pixel */
"40 40 94 2 ",
"   c #BE6A00",
".  c #C46600",
"X  c #C26E00",
"o  c #C67200",
"O  c #CD7100",
"+  c #CC7D00",
"@  c #CB710F",
"#  c #D27301",
"$  c #D77800",
"%  c #DA7C00",
"&  c #D48300",
"*  c #D68A03",
"=  c #DE8F00",
"-  c #D4890C",
";  c #DE8B0A",
":  c #D79100",
">  c #DB9201",
",  c #DC9900",
"<  c #D6920F",
"1  c #CF8511",
"2  c #CF8E1A",
"3  c #DB8D1A",
"4  c #DA931A",
"5  c #D89D1C",
"6  c #E08400",
"7  c #E48D00",
"8  c #E98F00",
"9  c #E49300",
"0  c #EA9300",
"q  c #E49B01",
"w  c #EA9B00",
"e  c #F09F00",
"r  c #DCAB02",
"t  c #D6A314",
"y  c #E4A400",
"u  c #EBA300",
"i  c #E4AA00",
"p  c #EBAC00",
"a  c #F1A300",
"s  c #F1AC00",
"d  c #E5B200",
"f  c #EDB300",
"g  c #EEBA00",
"h  c #F1B300",
"j  c #F2BB00",
"k  c #CA862D",
"l  c #D19124",
"z  c #D39C21",
"x  c #D0942A",
"c  c #D5A32B",
"v  c #DEB12F",
"b  c #DEAA34",
"n  c #D8A83A",
"m  c #E9B223",
"M  c #E7C100",
"N  c #EFC200",
"B  c #F3C200",
"V  c #F9C600",
"C  c #F4CB00",
"Z  c #FACA00",
"A  c #ECD200",
"S  c #F4D400",
"D  c #FAD500",
"F  c #F5DC00",
"G  c #F9DC00",
"H  c #F0C010",
"J  c #F0C11A",
"K  c #F5E400",
"L  c #FAE400",
"P  c #F7E900",
"I  c #F9EB00",
"U  c #F5F000",
"Y  c #FAF200",
"T  c #FAF900",
"R  c #F9F70F",
"E  c #FAFA0E",
"W  c #F0C225",
"Q  c #E1C03E",
"!  c #EDDC37",
"~  c #F9F727",
"^  c #F9F926",
"/  c #F9FA28",
"(  c #F4EE3F",
")  c #E8CF44",
"_  c #E4C44F",
"`  c #ECDC4E",
"'  c #F8F744",
"]  c #F9FA43",
"[  c #F1E853",
"{  c #F3EE59",
"}  c #F7F65D",
"|  c #F8F95D",
" . c #ECDC63",
".. c None",
/* pixels */
"..................................G G L L I I ..................................",
"............................G D G G G F G K P I I Y ............................",
"......................Z D Z Z V j j j j j j B S F K I Y Y ......................",
"....................Z Z j h h s s s s s h h f h j B S F Y T T ..................",
"................D Z B h a a a a a s s s s h h h h j j B S P U T ................",
"..............G D B s a a e a a a a s s s s s h h h f h g B F Y T ..............",
"............L D B s s a a a e a a s a a h s s h h h j j j j N S U T ............",
"..........L L B h s s a a a a a a a u d P C s h h h f h h j g B S Y T ..........",
"........I I C h h s s s s a a a e u y P T I j s h s h h h j j g B S Y T ........",
"........U F B f h h s s s a a a e w A T T T I j p h s h h j j h j N K Y ........",
"......T I C j g h h h h s s s a w M T T T T T L h s s h f h h j j j C P T ......",
"......Y F B j j j h h h s s s u d U T T T T T T G h s s h h h h h j g S Y Y ....",
"....I I C B N j g h h h h h s i K T T T T Y T T Y S h h s h h h h j g B P Y ....",
"....L S j j B j j j j h h j C F Y Y Y Y Y Y Y Y Y I G Z j h h h h j h j S Y ....",
"..G G B j j B N B j B B S L L I L I L L L L L I L I L L L D B j h h h h B I Y ..",
"..G D h f j g B C S G G L G G G G G G G L G G G G G G G G G G G D B p p f F Y ..",
"..D V s h h : , D G G D D D D D D G D D D D D D D D D D D D D D D y q u u C I ..",
"..Z j s s h , . u Z Z Z D Z Z Z Z Z Z Z Z Z Z Z Z Z Z Z Z Z Z Z f > w u u N I ..",
"..Z h a a s h * X f Z Z Z Z Z Z Z Z Z Z Z Z Z Z Z Z Z Z Z Z Z V > 9 w u y g L ..",
"..Z h a a s s s + + j Z Z Z Z Z Z Z Z Z Z Z Z Z Z Z Z Z Z Z V q 9 w w u w f L L ",
"..Z h e a a s s u o : V Z Z Z Z Z Z Z Z Z Z Z Z Z Z Z Z Z Z s 7 0 w w w u f G ..",
"..Z h e e a a a h q X i Z Z Z Z Z Z Z Z Z Z Z Z Z Z Z Z Z j 9 9 q w w w w f G ..",
"..Z j e e e a a s s & o j Z Z Z Z Z Z Z Z Z Z Z Z Z Z Z Z p 7 0 w 0 w w w j G ..",
"..Z j a e e e e w w 9 . i D D D D D D D D D D D D D D D D p 0 0 0 0 0 w w j G ..",
"..Z V a e 0 0 0 0 0 w O i L L L L L L L L L L L L L L L L j 0 0 0 0 0 0 u B G ..",
"....Z a 8 0 0 0 0 0 0 # r Y Y Y I Y Y Y Y Y Y Y Y Y Y Y I j w 0 0 0 0 w u C G ..",
"....Z h 0 0 0 0 0 8 0 # r E E E E E E E E E E E E E E E E B w 0 0 0 0 0 h Z ....",
"....Z j e 0 8 0 0 8 0 # t / ^ ^ ^ ^ / / / / / / / / / / ^ m w w 0 w 0 0 j D ....",
"......Z s 0 0 0 0 0 0 # z ] ] ] ] ] ] ( ! ! ' ' ] ' ' ' ] J w w w 0 0 s Z ......",
"......Z j a 0 0 0 8 0 $ x | | } [ ) m 5 < - 2 x _ ` { } | W w w w w u B Z ......",
"........Z h 0 0 0 0 0 % k  ._ b 4 ; > q u y y , * 1 l n _ m u w w u j D ........",
"..........Z h 0 0 0 0 6 @ 3 ; 7 0 w w u u u p p d i q = - q u u u j S D ........",
"..........Z Z s 0 0 0 0 8 8 8 0 0 0 w w u u i p p p p p u u y u g D G ..........",
"............Z V s w 0 0 0 0 0 0 0 0 0 w w w u u p p p d p p p C K L ............",
"..............Z Z h a 0 0 8 8 0 8 0 0 0 w w u u p p d p d g S L I ..............",
"..................Z j s e 0 0 0 0 0 0 0 0 w w u u u p g S P U Y ................",
"....................Z Z j s a w 0 0 0 0 0 0 w w u f C K Y Y ....................",
"........................Z Z V j h s s u u s h j C F L I ........................",
"..............................Z Z Z V V Z V Z D D G ............................",
"................................................................................"
};
