/* XPM */
static char *result[] = {
/* columns rows colors chars-per-pixel */
"40 40 29 1 ",
"  c #D3A900",
". c #D3AA00",
"X c #D4AA00",
"o c #D5AB00",
"O c #D6AB00",
"+ c #D9AE00",
"@ c #DDB100",
"# c #E0B400",
"$ c #E1B400",
"% c #E4B700",
"& c #E8BA00",
"* c #ECBD00",
"= c #EFC000",
"- c #F0C000",
"; c #F1C100",
": c #F3C300",
"> c #F4C300",
", c #F6C500",
"< c #F7C600",
"1 c #F9C700",
"2 c #FBC900",
"3 c #FCCA00",
"4 c #FDCA00",
"5 c #FCCB00",
"6 c #FDCB00",
"7 c #FECB00",
"8 c #FECC00",
"9 c #FFCC00",
"0 c None",
/* pixels */
"0000000000000000000555000000000000000000",
"0000000000000000006666300000000000000000",
"0000000000000000006666300000000000000000",
"0000000000000000006666600000000000000000",
"0000000000000000006666300000000000000000",
"0000000000000000006666600000000000000000",
"0000000000000000006666500000000000000000",
"0000000000000000006666600000000000000000",
"0000000000000000006666600000000000000000",
"0000000000000000006666600000000000000000",
"0000000000000000066666600000000000000000",
"0000000000000000076666600000000000000000",
"0000000000000000096666600000000000000000",
"0000000000000000076666600000000000000000",
"0000000000000000066666600000000000000000",
"0000000000000000066666600000000000000000",
"0000000000000000046666600000000000000000",
"0000000000000000036666600000000000000000",
"0000000000000000066666600000000000000000",
"0000000000000000076666600000000000000000",
"0000000000000000086666600000000000000000",
"0000000000000000066666600000000000000000",
"0000000000000000036666600000000000000000",
"0000000000000000066666600000000000000000",
"0000000000000000066666600000000000000000",
"0000000000000000032222200000000000000000",
"000000000000000001<<<<<00000000000000000",
"00000000000000000,>::::00000000000000000",
"00000000000000000;----=00000000000000000",
"00000000000000000******00000000000000000",
"000000000000000000&&&&&00000000000000000",
"000000000000000000%%%%%00000000000000000",
"000000000000000000$$$$#00000000000000000",
"000000000000000000@@@@@00000000000000000",
"000000000000000000+++++00000000000000000",
"000000000000000000oOOOo00000000000000000",
"000000000000000000XXXXX00000000000000000",
"000000000000000000XXXX.00000000000000000",
"000000000000000000XXXX 00000000000000000",
"0000000000000000000XXX000000000000000000"
};
