/* XPM */
static char *result[] = {
/* columns rows colors chars-per-pixel */
"40 40 60 1 ",
"  c #D58C0C",
". c #DB9004",
"X c #DA8410",
"o c #D79A1E",
"O c #E28E0B",
"+ c #E29705",
"@ c #EC9400",
"# c #E39A00",
"$ c #EC9B00",
"% c #E0960C",
"& c #F19B00",
"* c #D4AA00",
"= c #DAAE00",
"- c #DDB200",
"; c #E7A200",
": c #ECA400",
"> c #E7AB00",
", c #ECAC00",
"< c #F4A500",
"1 c #F4AC00",
"2 c #F8AE00",
"3 c #E3B500",
"4 c #EDB300",
"5 c #E6B900",
"6 c #ECBD00",
"7 c #E8B10E",
"8 c #F4B400",
"9 c #F8B200",
"0 c #F3BB00",
"q c #F9BD00",
"w c #F0B60A",
"e c #E7AF1A",
"r c #EFB611",
"t c #EDB51A",
"y c #E6AC24",
"u c #E2A62B",
"i c #EFC500",
"p c #F4C300",
"a c #F9C600",
"s c #F4CA00",
"d c #FECC00",
"f c #F4D300",
"g c #FDD300",
"h c #F5DB00",
"j c #FEDB00",
"k c #F6E200",
"l c #FDE300",
"z c #F7EC00",
"x c #FDED00",
"c c #F7F100",
"v c #FDF400",
"b c #FEFD00",
"n c #FEFD09",
"m c #FEFD22",
"M c #FDFC3D",
"N c #E0B642",
"B c #E9C84B",
"V c #ECD342",
"C c #FDFB58",
"Z c None",
/* pixels */
"ZZZZZZZZZZZZZZZZZZZZZZZZZZZZZZZZZZZZZZZZ",
"ZZZZZZZZZZZZZZZZZclljddddZZZZZZZZZZZZZZZ",
"ZZZZZZZZZZZZZZZZckaagdddddZZZZZZZZZZZZZZ",
"ZZZZZZZZZZZZZZZvk6888ddddddZZZZZZZZZZZZZ",
"ZZZZZZZZZZZZZZZzp882<9ddddddZZZZZZZZZZZZ",
"ZZZZZZZZZZZZZZZh00221<dgddddZZZZZZZZZZZZ",
"ZZZZZZZZZZZZZZcs4882<<qgdddddZZZZZZZZZZZ",
"ZZZZZZZZZZZZZZk008p1<29jgddddZZZZZZZZZZZ",
"ZZZZZZZZZZZZZZf608k8<18jgddddZZZZZZZZZZZ",
"ZZZZZZZZZZZZZcs08qvp<28sjddddZZZZZZZZZZZ",
"ZZZZZZZZZZZZZzp48dbh<80djdddddZZZZZZZZZZ",
"ZZZZZZZZZZZZZh088jbz19qaldddddZZZZZZZZZZ",
"ZZZZZZZZZZZZZh688zbb89qphdddddZZZZZZZZZZ",
"ZZZZZZZZZZZZZs88dvvvh0qphdddddZZZZZZZZZZ",
"ZZZZZZZZZZZZZs4axxxxxgqpdaddddZZZZZZZZZZ",
"ZZZZZZZZZZZZZ0plllllllssaaaddddZZZZZZZZZ",
"ZZZZZZZZZZZZZ46jjjjjjjg,appddddZZZZZZZZZ",
"ZZZZZZZZZZZZh>:ggddggg0#qppadddZZZZZZZZZ",
"ZZZZZZZZZZZZf,;ddddddd,;9p0pdddZZZZZZZZZ",
"ZZZZZZZZZZZZf,@pdddddd#<9p6saddZZZZZZZZZ",
"ZZZZZZZZZZZZf:#0ddddda#<2i60pddZZZZZZZZZ",
"ZZZZZZZZZZZZs:@1gdddd0#2266ipadZZZZZZZZZ",
"ZZZZZZZZZZZZf:@:ddddd,$<2656ppaZZZZZZZZZ",
"ZZZZZZZZZZZZZ:@<ggjgj;$<8535pppZZZZZZZZZ",
"ZZZZZZZZZZZZZ:@,lllll:@&25356ppZZZZZZZZZ",
"ZZZZZZZZZZZZZ,@8vvvvv,@@13-566ZZZZZZZZZZ",
"ZZZZZZZZZZZZZ,@8nnnnn4@@8--356ZZZZZZZZZZ",
"ZZZZZZZZZZZZZ1@7mmmmm7@@4-=-55ZZZZZZZZZZ",
"ZZZZZZZZZZZZZ4@rMCMMMe@@4*=-35ZZZZZZZZZZ",
"ZZZZZZZZZZZZZ0$tCVoVCy@&6**=33ZZZZZZZZZZ",
"ZZZZZZZZZZZZZp:tN #+Bu@<3**=-ZZZZZZZZZZZ",
"ZZZZZZZZZZZZZZ4+.41$OX@8-***-ZZZZZZZZZZZ",
"ZZZZZZZZZZZZZZp:,8:&@@&0****=ZZZZZZZZZZZ",
"ZZZZZZZZZZZZZZf4,,:$@@<5*****ZZZZZZZZZZZ",
"ZZZZZZZZZZZZZZZi>,:@@@93****ZZZZZZZZZZZZ",
"ZZZZZZZZZZZZZZZk4:$@@<p*****ZZZZZZZZZZZZ",
"ZZZZZZZZZZZZZZZvf;@@&05****ZZZZZZZZZZZZZ",
"ZZZZZZZZZZZZZZZZkq:<qp****ZZZZZZZZZZZZZZ",
"ZZZZZZZZZZZZZZZZZhadp=***ZZZZZZZZZZZZZZZ",
"ZZZZZZZZZZZZZZZZZZda-ZZZZZZZZZZZZZZZZZZZ"
};
