/* XPM */
static char *result[] = {
/* columns rows colors chars-per-pixel */
"40 40 83 1 ",
"  c #C96D00",
". c #C77200",
"X c #CA7500",
"o c #CC7D00",
"O c #D47900",
"+ c #DA7A01",
"@ c #CE7F21",
"# c #D48402",
"$ c #DB8E00",
"% c #D58508",
"& c #DC8F0D",
"* c #DF9500",
"= c #DB900F",
"- c #D18D17",
"; c #D0891B",
": c #DD921E",
"> c #D99C1B",
", c #E08200",
"< c #E28905",
"1 c #E88D00",
"2 c #E39400",
"3 c #ED9500",
"4 c #E39E00",
"5 c #ED9C00",
"6 c #F09600",
"7 c #F19C00",
"8 c #D4AA00",
"9 c #D9AE00",
"0 c #DDB100",
"q c #E4A000",
"w c #ECA300",
"e c #EDAC00",
"r c #F5A400",
"t c #F5AB00",
"y c #E2B500",
"u c #EDB200",
"i c #E7B900",
"p c #ECBC00",
"a c #F5B400",
"s c #F8B200",
"d c #F4BB00",
"f c #F9BC00",
"g c #DDA229",
"h c #DBAB2C",
"j c #DAA838",
"k c #E4BD32",
"l c #E1BB38",
"z c #EFC300",
"x c #ECCB02",
"c c #F5C300",
"v c #FAC500",
"b c #F5CB00",
"n c #FECC00",
"m c #F5D400",
"M c #FDD300",
"N c #F5DC00",
"B c #FEDB00",
"V c #E6C817",
"C c #F8DE18",
"Z c #F6E300",
"A c #FDE400",
"S c #F7EA00",
"D c #FCEC00",
"F c #FDF400",
"G c #FDFC01",
"H c #FEFD09",
"J c #E4C028",
"K c #F8DE29",
"L c #F8DF3C",
"P c #FEFE22",
"I c #FAF73B",
"U c #FEFE3D",
"Y c #DDB144",
"T c #E9CB4E",
"R c #EBD544",
"E c #F2D346",
"W c #EAD259",
"Q c #F2E249",
"! c #F8F254",
"~ c #FBFA56",
"^ c #FEFF5A",
"/ c #F7F26B",
"( c None",
/* pixels */
"((((((((((((((((((((((((((((((((((((((((",
"(((((((((((((nnnMBBAAADDDF((((((((((((((",
"(((((((((((nnnnMBMbnvcbmZSFG((((((((((((",
"((((((((((nnnMnnsattaaafdbNSG(((((((((((",
"(((((((((nMnMnftrtstssafdfdxZFG(((((((((",
"((((((((nnnBMfrrrrrstsaaadddbNG(((((((((",
"(((((((nnnBBfsrrrttttaaaaddddcZF((((((((",
"((((((nnnBAvatttrrrrrmvtaadddpzSG(((((((",
"((((((nnBDBaaasttrrrpGAaaaadddpbFG((((((",
"(((((nnnADvaaatttrrwDGGMaaadddddNF((((((",
"(((((nnBFBcfaaastt5xGGGGdtaaddpdbSG(((((",
"((((nnnAFbcdfaaasruGGGGGDaaaaaddpmF(((((",
"((((nnnDAcvddfaaswNGGGGGGMaaaapadbS(((((",
"((((nnBDMcccddaafmFGGFFGFFMdaaadpdZF((((",
"(((nnnBBccvvvdvBADDDDDDDDDDABcdaudmF((((",
"(((nnnBnadccbBAAAAAAAAAAAAAAABBbaepD((((",
"(((nnnMvaf4pBBBBBBBBBBBBBBBBBBBb4weZ((((",
"(((nnnnfta*onMMMMMnMMMnMMnnMMnMe2weND(((",
"(((nnvnsttaXqnnnnnnnnnnnnnnnnnd2wqwmD(((",
"(((nbvnsrttw.vnnnnnnnnnnnnnnnbw355wbD(((",
"(((nvbnsrtts#$nbnnnnnnnnnnnnnd2555wbS(((",
"(((vvcnsrrrst.annnnnnnnnnnnnnw35344bA(((",
"(((vvcns7rrts$#bnnnnnnnnnnnnd13555wbB(((",
"(((cccnfrrrrr5 cBBBMBMMMBBBBc53335wb((((",
"(((cczvf777667OzAAAAAAAAAAAAn33333wb((((",
"(((bdzcn736637OxFFFDFFFFFDFFN53332eM((((",
"((((zdcvr36636OxHHHHHHGHHHHHN55333aM((((",
"((((pppbt63336OVPPPPPPPPPPPPC55325dM((((",
"((((ppicf73336+kUUUU~UIUUUU~Kw533wb(((((",
"(((((iipnt3336+l^~~QJ>-hL!~^Qr555fb(((((",
"(((((iiyvf7363+Y/Tg=2ww*#;jWEw55eb((((((",
"((((((yyibt336,@:<2rwweuiq*%=wwwbM((((((",
"((((((yy0znr333136357wwtuuuawwwzB(((((((",
"(((((((090cv5333363375weeuueewzZ((((((((",
"((((((((990cfr33333357wweeieybSD((((((((",
"(((((((((980cvr63333355rweepmDD(((((((((",
"((((((((((880bvar3333555wezZFF((((((((((",
"(((((((((((889pbnftw75rtdMSF((((((((((((",
"(((((((((((((88ypvnnvvnvMB((((((((((((((",
"(((((((((((((((((((bnbb((((((((((((((((("
};
