/* XPM */
static char *_a849a88242844efde08cbdddcac98cdzPmdbrxBJn0PNtn7[] = {
/* columns rows colors chars-per-pixel */
"60 48 209 2 ",
"   c None",
".  c #321B11",
"X  c #331C11",
"o  c #412617",
"O  c #432818",
"+  c #442919",
"@  c #492D1D",
"#  c #602E15",
"$  c #612F16",
"%  c #653117",
"&  c #6A3519",
"*  c #743B1C",
"=  c #793D1E",
"-  c #793E1E",
";  c #783F1E",
":  c #7A3E1E",
">  c #533B29",
",  c #7D401F",
"<  c #5C4430",
"1  c #6B5037",
"2  c #6E5339",
"3  c #7D6245",
"4  c #83431F",
"5  c #844420",
"6  c #8F4921",
"7  c #9A4F23",
"8  c #9C5023",
"9  c #BE5D27",
"0  c #BF5D27",
"q  c #BF5E26",
"w  c #BF5E27",
"e  c #BA6028",
"r  c #C15A22",
"t  c #C25B23",
"y  c #C05E27",
"u  c #C25F28",
"i  c #C76025",
"p  c #C26028",
"a  c #C36128",
"s  c #C46128",
"d  c #C46228",
"f  c #C76329",
"g  c #C86429",
"h  c #C86529",
"j  c #C9652A",
"k  c #CA662A",
"l  c #CC672A",
"z  c #C8662C",
"x  c #D2692B",
"c  c #D16B2C",
"v  c #D26B2C",
"b  c #D36C2C",
"n  c #D66E2D",
"m  c #D76E2D",
"M  c #D66F2D",
"N  c #D76F2D",
"B  c #D76F2E",
"V  c #D86F2D",
"C  c #D86F2E",
"Z  c #D6702D",
"A  c #D7702D",
"S  c #D7702E",
"D  c #D7712F",
"F  c #D8712F",
"G  c #C6743E",
"H  c #C6763F",
"J  c #D87230",
"K  c #D87331",
"L  c #D87332",
"P  c #D87432",
"I  c #D87533",
"U  c #D97533",
"Y  c #D97634",
"T  c #D97736",
"R  c #DA7A39",
"E  c #DB7D3C",
"W  c #DB7E3D",
"Q  c #DB7F3E",
"!  c #84694A",
"~  c #886D4E",
"^  c #92704C",
"/  c #987D5A",
"(  c #B4996F",
")  c #DB8241",
"_  c #DB8242",
"`  c #DB8343",
"'  c #DC8140",
"]  c #DC8241",
"[  c #DC8342",
"{  c #DD8444",
"}  c #DD8645",
"|  c #DE8948",
" . c #DE8949",
".. c #DD8A4B",
"X. c #DF8D4D",
"o. c #CF935B",
"O. c #DE9254",
"+. c #D2925B",
"@. c #E19353",
"#. c #E19354",
"$. c #E19455",
"%. c #E19557",
"&. c #E29658",
"*. c #E39B5D",
"=. c #E39C5E",
"-. c #D29A64",
";. c #CEA874",
":. c #C1A67A",
">. c #C2A87B",
",. c #DFB77F",
"<. c #E4A063",
"1. c #E1A164",
"2. c #E5A265",
"3. c #E5A365",
"4. c #E5A467",
"5. c #E6A76A",
"6. c #E6A86B",
"7. c #E7A96C",
"8. c #E7AB6E",
"9. c #E7AB6F",
"0. c #E7AC70",
"q. c #E8AC70",
"w. c #E8AD71",
"e. c #E8AE72",
"r. c #E5B377",
"t. c #E9B074",
"y. c #E9B276",
"u. c #E6B97E",
"i. c #EBB87C",
"p. c #EBB97E",
"a. c #DCB781",
"s. c #D3B888",
"d. c #D7BC8B",
"f. c #E7BC82",
"g. c #ECBD83",
"h. c #ECBE83",
"j. c #ECBF84",
"k. c #DFC38D",
"l. c #EDC086",
"z. c #EDC187",
"x. c #E3C38E",
"c. c #E0C58E",
"v. c #E0C58F",
"b. c #EDC288",
"n. c #EEC38A",
"m. c #E8C48A",
"M. c #E8C48B",
"N. c #EDC489",
"B. c #EDC58A",
"V. c #EDC58B",
"C. c #E9C68D",
"Z. c #EEC68C",
"A. c #EFC78E",
"S. c #E9C88F",
"D. c #EEC88E",
"F. c #EFC98F",
"G. c #E0C490",
"H. c #E0C590",
"J. c #E2C791",
"K. c #E6CB95",
"L. c #E7CC96",
"P. c #E6CC97",
"I. c #E9CA91",
"U. c #EFCA90",
"Y. c #EFCC92",
"T. c #EACD95",
"R. c #EBCD95",
"E. c #EBCE96",
"W. c #EBCE97",
"Q. c #E6CC98",
"!. c #E9CE98",
"~. c #E9CF98",
"^. c #E8CE99",
"/. c #EACF9A",
"(. c #F0CA91",
"). c #F0CB92",
"_. c #F0CC93",
"`. c #F0CD95",
"'. c #F0CE95",
"]. c #F0CF95",
"[. c #F1CE96",
"{. c #F1CF96",
"}. c #F1CF97",
"|. c #EBD09A",
" X c #EBD19C",
".X c #EED49E",
"XX c #EED49F",
"oX c #F1D198",
"OX c #F1D199",
"+X c #F1D299",
"@X c #F1D29A",
"#X c #F2D39B",
"$X c #F2D49C",
"%X c #F3D59D",
"&X c #F3D59E",
"*X c #F0D69E",
"=X c #F1D69E",
"-X c #F1D69F",
";X c #F3D69E",
":X c #F3D69F",
">X c #F3D79F",
",X c #F3D7A0",
"<X c #F2D8A1",
"1X c #F3D8A1",
"2X c #F3D9A2",
"3X c #F4D8A1",
"4X c #F4D9A1",
"5X c #F4D9A2",
"6X c #F4DAA3",
/* pixels */
"                                                                                              J.                        ",
"                                                                                                K.v.v.                  ",
"                                                                                                6X/.v.v.v.              ",
"                                                                                                  6X/.v.v.v.            ",
"                                                                                                  6X6XP.v.v.v.J.        ",
"                                                                                                  6X6X6XJ.v.v.v.v.      ",
"                                                                                                  6X6X6X1Xv.v.v.v.      ",
"                                                                                                  6X6X6X6X|.v.v.v.v.    ",
"                                                  N A                                             6X6X6X6X6Xv.v.v.v.J.  ",
"    N N N N                                 N N N K N                                           6X6X6X6X6X6X/.v.v.v.v.  ",
"    N N N N N N N                       N N $.[.E.C.N                                           -X6X6X6X6X6X1Xk.-.v.v.  ",
"    N 1.E.1X).#.N N                   N *.6X6X6X-XE.N                                         5.t.6X6X..z.6X6Xa.w G v.v.",
"    N u.E.6X6X6X-XK N               N 6.6X6X6X6X1XE.I N                                       N z.6Xt.N ' 6X6X+.w w G v.",
"    N M.E.6X6X6X6X[.N N N N N N N N N 1X6X6X6X6X1XE._ N                                     N N +XZ.N N A 6X6Xz w w w o.",
"    N S.E.-X6X6X6X-XN N N N N N N N N q.6X-Xz.6X-XE.O.N                                     N A ).N N N N -Xj.s w w w w ",
"    N M.E.E.6X6X1X' N N N N N N N N N N N N i.6XE.E...N                                   N N T N N N N N [.K p w w w w ",
"    N r.E.E.E.K N N N N N N N N N N N N N N <.-XE.E.A N                                   N N N N N N N N ..N y w w w w ",
"    N T E.I._ N N N N N N N N N N N N N N N N f.C._ N N                                 N N N N N N N N N N N w w w w w ",
"      N N N N N N N N N N N N N N N N N N N N N N N N N                                 N N N N N N N N N N N w w w w w ",
"      N N N N N N N N N N N N N N N N N N N N N N N N                                 N N N N N N N N N N N v w w w w w ",
"        N N K K N N N N N N N N N N N A i.6X6Xz.A N                                   N N N N N N N N N N N k w w w w w ",
"      N W -X6X6X6Xq.N N N N N N N N ' 6X6X6X6X6X6XA N                               N N N N N N N N N N N N w w w w w   ",
"      I 6X6X6X6X6X6X-XF N N N N N R 6X6X6X6X6X6X6Xq.N                               N N N N N N N N N N N N w w w w w   ",
"    N 4.6X6X6X6X6X6X6X-XA N N N N -X6X6X6X6X6X6X6XF.N N                           N N N N N N N N N N N N l w w w w w   ",
"N N N 9.6X6X6X6X6X6X6X6Xb.N N N 0.6X6X6X6X6X6X6X6Xi.N N N N                     N N N N N N N N N N N N N w w w w w     ",
"  N N { 6X6X6X6X6X:.3 6X6XX.N F 6X6XP.2 .X6X6X6X6X{ N N N                     V N N N N N N N N N N N N b w w w w w     ",
"  N 9.2.1X6X6X6X6X+ o s.6X,XN 9.6X6X1 o ~ 6X6X6X6Xb.$.N N                   N N N N N N N N N N N N N N u w w w w       ",
"    6X6X6X6X6X6X6X! @ 1X6X6X&.6X6X6X>.O d.6X6X6X6X6X6Xz.N N N N N         N N N N N N N N N N N N N N v w w w w w       ",
"      6X6X6X6X6X+XN.F.6X6X> . X Q.6X_.N.Y.6X6X6X6X6X).N N N N N N N N N N N N N N N N N N N N N N N N w w w w w         ",
"        6X6X6X,XN.N.N.Z.6X< . .  X[.;.,.N.[.6X6X6Xh.N N N N N N N N N N N N N N N N N N N N N N N N s w w w w           ",
"          6X6X1XN.N.N.F.6X6X.X6X6Xx.^ N.N.+X6X6X=.N N N N N N N N N N N N N N N N N N N N N N N N k w w w w             ",
"              6X-XU.[.6X6X6X/.( / /.+XF.+X6X[.I N N N N N N N N N N N N N N N N N N N N N N N N k w w w w               ",
"                  6X6X6X6X6X6X6X6X6X6X6X).W N N N N N N N N N N N N N N N N N N N N N N N N N p w w w w                 ",
"                            h.0.2.@.W N N N N N N N N N N N N N N N N N N N N N N N N N N k w w w w w                   ",
"                              N N N N N N N N N N N N N N N N N N N N N N N N N N N v s w w w w w                       ",
"                              N N N N N N N N N N N N N N N N N N N N N N N N b w w w w w y                             ",
"                              N N N N N N N N N N N N N N N N N N N N N N N N N                                         ",
"                                N N N N N N N N N N N N N N N N N N N N N N N N                                         ",
"                                N N N N V N N N N N N N N N N N N N N N N N N N                                         ",
"                                N N N       A N N N N   V N N N N N N N N N N N                                         ",
"                                N N N         N N N N           N N N N N N N N                                         ",
"                                N N N           N N N               x N N N N N                                         ",
"                                N N N           N N N                 t N N N N                                         ",
"                                N N N           N N N                 t i N N N                                         ",
"                              - - 4 7           5 8 e                 t t N N N                                         ",
"                            - - - - -       - - - - -               $ & - - , 6                                         ",
"                          - - - - - -     - - - - - -           $ $ * - - - - -                                         ",
"                                                                $ % - - - - - -                                         "
};
