/* XPM */
static char *_0fab9b52bf9436db5c5a54e350a4e7ccGHDeHKhRgY8jyRQ[] = {
/* columns rows colors chars-per-pixel */
"75 75 32 1 ",
"  c #259605",
". c #2A9706",
"X c #269A05",
"o c #2C9C06",
"O c #2F9908",
"+ c #309C07",
"@ c #339B08",
"# c #349B09",
"$ c #309C08",
"% c #329E08",
"& c #349F08",
"* c #389F09",
"= c #27A005",
"- c #2CA106",
"; c #2CA206",
": c #2EA406",
"> c #32A107",
", c #33A407",
"< c #33A707",
"1 c #34A507",
"2 c #33A008",
"3 c #37A109",
"4 c #33A408",
"5 c #36A408",
"6 c #39A309",
"7 c #3CA20A",
"8 c #38A509",
"9 c #3CA60A",
"0 c #36A808",
"q c #3AA809",
"w c #3AA909",
"e c #3FA90A",
/* pixels */
"33o2oX>oo..%>=>58<4%+o.%-o&-o+3oooo X%o&6qo.oo.o%@oo%oo-3%o+86%o<23o%oooo-o",
"o3o@+.o-ooo-o.@%+><<o+o>5oo>X.3%X.@oX%oo76%..%+o..oo3-oo%oo232%oo@&2<+Ooo--",
".o.oo%&-.->oo@+o.ooo+%o-5>++. *+.ooooo..385o.3%%o+o-<<<.o+ooo>3o.o%25>%o.%o",
".o+oo5&3oooo53>oo%&O&5+o33+...%2>08oo%.+%55>o3+3>2+o.33o%o-ooo%X=>-oo%>>>oo",
"o<>.-o+3>>o-36.+%+&@@8q..O+o.>-%359.X+o>3&%o&3>--%@..O&%%.-o.%3.o-<o.&>3%3.",
"><<o-oooo%%>3&..%3o&+>5oo.oo->o>>36oX3o.*+%o&5<oo<--8&+%%oooo26<>o2->>o%#*%",
">22%-o..o@&o&o>oo6%+oo%ooo%.+3o2o+>-o3%%6+3%<-%2<>o8e8>>oo+%o2>-3+o+5>..53>",
":>%%+o>oo&3o3>>oo@&o2oo%o<<++>><%%oO.58<<3%+3%@%5+o*63>>.o3&o>-o&>oo>5o.o+%",
"3+o3o+o42>o-ooo%oo+453oooo%5o>o-+&@#oo5>583>5&@%+>%%3<8>o#&&oooo#.Xo.%oX.o%",
"%@o&@ooo+oo..Oo<>2-<3>-oXo&0<8oo%@o+o+oo23812+++%&%>-46ooO#@%oo2%  +.%o o2>",
"o.oo&oo.o@@...o>->.o&<-oX%>5283%63oo.oo.&o8>>o%++&&3o%&%%oo+2o.3o Xo+%ooo2-",
"X.o-<2o.+o+%o-3o.o O%o+2o&>oO@3366.Xo.o.%>5%2o%%%&%&oo23oo->35o%o>-oO#+3+%.",
"Xoo-o3o.o->8<52+.oo@%o&%+%%.ooO@&ooooX+>o>>o&oo3+%o+%-o3o-5>>&oO283o+&-53+.",
"o-+%o55ooo%3+&%-4348o%&@@22>-o..&+2>oo>>o@oo3..6o%oooooo%%%33-Xo+3%o51>><3o",
"+.o%%>35o%+@+3oo%350>>o+++>-+.+o%&33+-<>.o=>5Xo&+3%+Xo.+&@&&%Xo<-ooo55>.o+3",
"-o.+>>53-63o%%..oo%3o3==o+.o@o+335>><o%%oooo>oo+-o>5=o.@%o++-o>o+oo-<33o%+>",
"--o>:o>>>33-2&o%o.+oX>o.ooo@o.%665>>o2ooo>o.oo.+2Xo8oo>%+ooo>o>o%>---o6>5>o",
"o.oo%oo%>o%oo38<5>ooo+.o.X>%o-2%*&+o.@%oo%oOoo+%oo+3.+8%o-X+o++oooo-Xo2+3>o",
"ooo.o%+&%+%%oo<853oo.&o8Xo.oo2ooo>-o.oo&<%o>>22o.o2o.35o%% ooo+-oo+<:<<o33-",
"oooo%+>3%3885<-52&+oo3.6 o-ooo.+o-oX +>51<-053%oo+% .&3.%&.oooo--.%-ooo.&+o",
".oo.oo>-o2823>>82>%o35o*oo>2+.oo>-. .-58&+o223%.o3%.3&oo232oX-oo.X>o...O*%%",
"=oXo->oooo&@@%&*3>+o2%.*oo%%+oo.++. o>66%o.&o%o-25>o2-..8>+o o%o2-o3ooo233o",
"oX.o-ooooooo.+3338oo<oo50o@+o5+..%oXoo*&2>oo.o--<+3.o:-o6>oooo%+23.5<o-2o3+",
". .o-..+oo>-o.%%@%6<>>><8<%&X3> .ooooo3>>%&o.o-<o.%.+<<%&ooo.o0o@&&5>.o&oo&",
"o o5%oo%oo+%%...%o#%o%-o635% .&-o-oo%35%o%3>oo<2o.Xo+&2&o ooo.2o@%%%&%o*%o%",
".o>5o3>o+%o@&o=.@%oo.+oo&*52..&>X.oo%83o.o%%oo+@o.X..o%%o.%o.oOo2-o%36o2<<>",
"o->>o+>>83o+>0=oo%%o.o.o>&%>o-o+ ..++&%%2335-+%+o%oo .oo<oo+oo++3o>586>25>+",
"<>2>2+oo805><0o.Xo&++6X 23o@+-ooo+ooo@+833&&o@o+-++&.o-o%. &o.33#o2055o2>3@",
"++o.>3o&&++%%3%o.o&263..oo.&*+..>+%oooo662&#o@o+2>>>>>oo@oo>o 32+3+&23.%>%+",
"%%%o<5o%%..o%%o-o>3%*@.>-o.@&oo<<>%oo>=55-&6&@Xo321<>+o>.>>>ooo==5+o+%.%&o2",
"385>2+.o% .oo@>>%%23o%oo..oo+o-->o+..>=o%>o3%o.-<q3>>o.3>5%O.%oooooo%o.o@.%",
"%%3o%@..o.oooO+>%355<o>. .o=>oo oo%o.oo.%%-4+oooo2+ooo %8>%oooo.o.o%&o>o%o@",
"o.%.ooo.ooo.o% .o58%.ooo....o.ooo%0:->.oo@o->%ooo@o2.+.o*o+oo.o.%o++&o%33%%",
"oooo..+oo.. o%..o%*%o+++o..%%>->&%3><5oo>>oX=5+o%&>3o855&o>8ooo.+>ooo-%o%+o",
"3+33.oq-oo-o+>2o>+&oo%%@Xoo253oO&.%366oo15o  +>>%+>%%3+&%2<q+oo>oooo-+6+@oo",
"6335oo5o><:>@2363o3o.@&+.X+4>@oooXo#&#O.-+.o.o3>oo.&3+.Oo%>%%oo-2.oo6o%o.oo",
"&%%%+o2>3<->&3%*3o8%.o<-. .o%OooX.3%o3+ o<o%&@&o+3 %6oo%o+@oo>3o2oo.@o.oo>o",
"%oo%@.4>>%..o3@.-53>><<>.oo+oo+-X.->-85> o-3&&o-+&o26oo3:>+o-oo+oo>oooo+%3+",
"@ooo+o+%o>.ooo>oo3+o+2++%-0q-.2>oo.+o25- o2%35o-ooo82oo>-oo.o.Xo%333>o>52&o",
"o-oo-o@@+>-5>32>3-.oo@o+<<5e4.>+o2o->o3ooo232-ooooo3%o-=o..o+o=-+&&+3o+&&%.",
"oo@oX<@%%338>5%28>.o+%o55-<5---o@o+>&o+ooo33oo.@3>oo+%>=1-.o%3>o+%%o332%%-o",
"oo&%.-%%&&663<>>%>-o3>o88=o5>oo.%o3%%oooX33%o+O&6>o.%3+.>oo>3&&o%@@%+3o>---",
"ooo@@.+2>&*&&o-- o5--oo2<>.64o@o5<><-o..X5%o.&o35-%.>2+Xoo262++%>+%+83oo5+%",
"3o..>o++o36%3&.oXooooX.2o%@&%+o.36o++oo%oo&o >o+<.%.>>>ooo>3o>+o->2%63=oo>-",
">>>oo+%oo285:8O ...@o-o%o@6>+&oo29+@%-o%3o%%oo%%5>oo3+%.o.o>+oooo%@o63..Xo+",
"Xo822%+o+o83o->oo..%o>>>+%3>oo.o+6>o+oo23<0e8+%%93>23&&ooooo---o@@@&3oo.o o",
" o3o@&=->o&oXo>o2o-=+o++.o%+oXooo@++3o-2%o35365<&%%&883o>-o.%ooo6>>3%+2=<--",
". +o.@<4->@..o+o%3o.o.%8>o-=+oo@%o@+>oo...@&.*3-o%@@&6&&3o%%%+oo5<<3o><-+32",
"3oo%+o>%o%%o.@+oo5ooo-&33>o=:-&3>3%>o.o. oo&O#%o&>o3o%%3&@@oooo32%%&o--.@oo",
"2-%%--ooo>>>3+ooo>>ooo%%&o.+>><<-o5>o+4%.o<5+%->6&o-o%o5%o  ..o32o+@o-+O@o ",
"ooo>oo..o2>o33o@@+&oo.O%3%oo%->+o.>o%&++oo2<o>-<<<o++oo388..oO.%+-<oo<+&@. ",
"o-o+oo+oo%%o+%oo3&%.oX.%33>oo%..oXoo+#%2o%52..%+<-o+2>o<68oo2ooooo3.o+2>+oo",
"%3oOo+5o.+5o..>ooooXo.o5>8<o.@...oo+o&>3oo%+o.#@o.oo3%.o-2oo50-oX.%X<5%+o+o",
"56o..%8oo:9o..oo>o..oooo&q-o%+o.oo.>353%%ooo%%*&o.>o@%o.o33oo<-+Xo%ooo+oo>>",
":2o3>+3%>56@oo+o-oooo%2oo6%o35ooo+o.3>%+&%.oo&3&oo<ooo>oX%23o-o-o=-%O...o23",
"-oo81>%%>o*%+-->oo>>.53oo&%o35+2.o>++o%oooo2%633+2>>=o%oo.o&ooo-o-.%2o.ooo%",
"%o.3+o>-oO&%.<o32o5<.@%&o+o>2%%%.oq8oo%%oo%%>96633%%.oo+5>o%%o-3o%.&+>5=Xo.",
".o.-oooo.@+oo-.63o%o>oo&+oo52@o&>366%%@%%.o%-3>>&6+o.%o%8<=o2->+&3oo@%3o @+",
"-:->.o..o&%o..o>+3oo><X2>..%%3--o3%o%ooo+-->+oXo26><o-ooo%.o2o%o68oo3%@.o3<",
"1-%oo>5o-33o+ o.>6.++oo=>oo.@%o.+3o.>->=>>o.%o o>558.o-<...o%.&@@2=>3oo.%8<",
">%@.o-8o%o+.-o+.+6.%o.oo25o.o. o+oooo>5.oo%oo%+o>+58oo%+o-3%%+%ooo.&*2>-o63",
"o&%XX.6%+Xo.o->o+-%&%.oo5%.%2X.&3o+o.-8+.%+2+53+oo66+>o+Xo35-<-o-..&33%>333",
"+3&..o8oooo>..ooo.333+oo2o 33ooo6o>+>23%o@o&3+@@.o25o.o%. %<==o.+..6q2++&++",
"o35oo+&..2o5%oo=..+2o22o@%X-3o+>%@oo-58&&%22>+o+--o%..o%%oo->:<+++o38+o>&.o",
".+>-.o&&o->2>+ooXo+oo2oo@%.o2oo3o@o..%%-52>=-oo>:=o%..-5q&o.233q<23>8+o>3oo",
"o-6o..33-ooo2%%oXo%o36oo3+@oo+%oo->ooooo+%.XoooooXooo.oo33o++%&8>.%o6ooo&o=",
"=-&%oo%%oo...o&>XX++&&%o1<3%.%3.X-oo5>%oo&..o%ooo...ooo o-o+oo.45ooo3ooo@+-",
".o+>-%%ooo++o.%o.Xo%%+o.3+3.o%3oo5>>4>>>-3+>=>>5+oo-<o&.ooX.ooX><=>><3-oo3o",
"o+o-o%6ooo>>>oo .oo3>>-o6*3o+&+oo>+oo2+3+>o&.oo8<=o>>.@.oooo+>o>>o>358oo-%@",
">>:oo>3X.oooo-o.o%%%o.o+663o>>>2oo>oo@&33oo...=55oo%+o+2+4->ooo-3Xo33&oo-o6",
"6%ooo22oo%ooo<->oo@oo.X%3-%+>>o%oo3o-o&23>-..+-<+..+ooo>+%><+...- o%@@%3+.3",
"*%oO.>o.&&@&>o>o3.o.o& o2.o>>oo%oo3o..oo#%<:+%o&%+o<o@2--Xo&&o o4...oo.&&oo",
"%2o+o.ooe2>3oo+.%Xoo>>Xo%+..+%o>822. >ooo.+2&% &6oo2.85--oo%oo o3oo-->o3+-2",
">+.o-X.o22+6...o%o>o--ooooo.o3oo6*@.o3+>o +%oo..&%.%.23o&+%+3>.o2>>>-888&+>",
"6%--o=Xo.%@&oo-%3-o%52.o..3oo&O.+%%Xo%58->o>o-=.o8o&..@o%%+-983o=5>o@3323%o"
};
