/* XPM */
static char *result[] = {
/* columns rows colors chars-per-pixel */
"60 60 242 2 ",
"   c #040102",
".  c #0B0201",
"X  c #0D0C02",
"o  c #03030A",
"O  c #08080B",
"+  c #130301",
"@  c #1B0400",
"#  c #130A01",
"$  c #1B0C01",
"%  c #150F0B",
"&  c #1C1200",
"*  c #181704",
"=  c #050812",
"-  c #181517",
";  c #240300",
":  c #2B0A01",
">  c #330D01",
",  c #241400",
"<  c #291803",
"1  c #371707",
"2  c #291B14",
"3  c #341B14",
"4  c #1B2506",
"5  c #292705",
"6  c #342300",
"7  c #3B2B02",
"8  c #372706",
"9  c #293407",
"0  c #363708",
"q  c #292717",
"w  c #372717",
"e  c #2C3613",
"r  c #373517",
"t  c #392B24",
"y  c #383A28",
"u  c #33312B",
"i  c #471D05",
"p  c #441D13",
"a  c #482608",
"s  c #473705",
"d  c #462819",
"f  c #532918",
"g  c #473818",
"h  c #5A3719",
"j  c #543309",
"k  c #67361D",
"l  c #662D1D",
"z  c #4A2B23",
"x  c #532B26",
"c  c #493428",
"v  c #54352B",
"b  c #59352C",
"n  c #543A2D",
"m  c #593928",
"M  c #493A33",
"N  c #5C3C32",
"B  c #563A32",
"V  c #673927",
"C  c #743A28",
"Z  c #663D34",
"A  c #733E34",
"S  c #3A4407",
"D  c #374418",
"F  c #3D432E",
"G  c #494717",
"H  c #564617",
"J  c #4F4C11",
"K  c #63461A",
"L  c #64521B",
"P  c #714B1E",
"I  c #53641C",
"U  c #474927",
"Y  c #594528",
"T  c #4A5729",
"R  c #58572A",
"E  c #474836",
"W  c #5B4235",
"Q  c #584538",
"!  c #4B5337",
"~  c #585738",
"^  c #67442A",
"/  c #75472A",
"(  c #665727",
")  c #765729",
"_  c #634333",
"`  c #634339",
"'  c #6A4838",
"]  c #744B3D",
"[  c #774737",
"{  c #68573C",
"}  c #785539",
"|  c #5C6626",
" . c #586338",
".. c #676A38",
"X. c #776838",
"o. c #677539",
"O. c #74773A",
"+. c #6E6C2B",
"@. c #594A43",
"#. c #595948",
"$. c #5C5C58",
"%. c #484A47",
"&. c #694B43",
"*. c #744C44",
"=. c #7B4C42",
"-. c #784F4A",
";. c #685447",
":. c #7C5343",
">. c #7B544A",
",. c #785749",
"<. c #7A5B56",
"1. c #5C6446",
"2. c #646C44",
"3. c #676847",
"4. c #6B7647",
"5. c #767A48",
"6. c #666857",
"7. c #7A6757",
"8. c #6C7554",
"9. c #727552",
"0. c #787A56",
"q. c #79614D",
"w. c #747574",
"e. c #797764",
"r. c #844C3B",
"t. c #844A37",
"y. c #86553B",
"u. c #895636",
"i. c #88743C",
"p. c #87643A",
"a. c #874D44",
"s. c #83544B",
"d. c #845C4D",
"f. c #895746",
"g. c #865D54",
"h. c #925946",
"j. c #886748",
"k. c #93694B",
"l. c #897548",
"z. c #96774C",
"x. c #876655",
"c. c #966855",
"v. c #857957",
"b. c #9B7657",
"n. c #A7775A",
"m. c #A67352",
"M. c #896B62",
"N. c #997B68",
"B. c #90786F",
"V. c #A87B65",
"C. c #A3716A",
"Z. c #73823C",
"A. c #798448",
"S. c #7C845B",
"D. c #798655",
"F. c #768949",
"G. c #7C8868",
"H. c #7D8573",
"J. c #87854A",
"K. c #879648",
"L. c #868858",
"P. c #998757",
"I. c #899659",
"U. c #94995B",
"Y. c #92824C",
"T. c #A6845B",
"R. c #AE8A5E",
"E. c #98A55A",
"W. c #8DA04F",
"Q. c #A8A95C",
"!. c #878967",
"~. c #8B9466",
"^. c #979A65",
"/. c #888874",
"(. c #8A9376",
"). c #939975",
"_. c #93856A",
"`. c #AA856C",
"'. c #A88466",
"]. c #B68A68",
"[. c #A79B66",
"{. c #B8946C",
"}. c #A98A73",
"|. c #B38B74",
" X c #B8947A",
".X c #9BA667",
"XX c #9DA574",
"oX c #9EB26A",
"OX c #A4A86A",
"+X c #A4B464",
"@X c #ABB365",
"#X c #A4B26B",
"$X c #ACB36D",
"%X c #ABBB6C",
"&X c #B4B76C",
"*X c #A7AA75",
"=X c #B3AB75",
"-X c #A5B373",
";X c #ACBB74",
":X c #ABB678",
">X c #B3B374",
",X c #B4BC7B",
"<X c #B8B779",
"1X c #B8A96E",
"2X c #C59877",
"3X c #C3956B",
"4X c #C4B679",
"5X c #B4C27B",
"6X c #B7C578",
"7X c #ADC274",
"8X c #C6C37C",
"9X c #827F82",
"0X c #8F9088",
"qX c #B59A88",
"wX c #9CA28A",
"eX c #A9AD82",
"rX c #ADB884",
"tX c #B4BD83",
"yX c #BCBC83",
"uX c #B8B989",
"iX c #A5A694",
"pX c #B5BA95",
"aX c #B1AC9A",
"sX c #B5B5AA",
"dX c #C7A893",
"fX c #C8B690",
"gX c #CABAAC",
"hX c #C39F87",
"jX c #BBC586",
"kX c #BDC796",
"lX c #BED188",
"zX c #BFC7A2",
"xX c #C4C787",
"cX c #C5C996",
"vX c #CAD29A",
"bX c #D0D290",
"nX c #CDD3A7",
"mX c #D3D8A9",
"MX c #C8CEAC",
"NX c #DEE3B2",
"BX c #D2D8C2",
"VX c None",
/* pixels */
"VXVXVXVXVXVXVXVXVXVXVXVXVXVXVXVXVXVXVXVXVXVXVXVXVXVXVXVXVXVXVXVXVXVXVXVXVXVXVXVXVXVXVXVXVXVXVXVXVXVXVXVXVXVXVXVXVXVXVXVX",
"VXVXVXVXVXVXVXVXVXVXVXVXVXVXVXVXVXVXVXVXVXVXVXVXVX0XVXVXVXVXVXVXVXVXVXVXVXiXVXVXVXVXVXVXVXVXVXVXVXVXVXVXVXVXVXVXVXVXVXVX",
"VXVXVXVXVXVXVXVXVXVXVXVXVXVXVXVXVXVXVXVXVXVXVXVX0X%.9X$.VXVXVXVXVXVXVXw.w.0X0XsXVXVXsXw.VXVXVXVXVXVXVXVXVXVXVXVXVXVXVXVX",
"VXVXVXVXVXVXVXVXVXVXVXVXVXVXVXVXVXVXVXVXVXVXVX/.u u u $.VXVXVXVXVXVXVX$.u y - VXVXVXiXe.VXVXVXVXVXVXVXVXVXVXVXVXVXVXVXVX",
"VXVXVXVXVXVXVXVXVXVXVXVXVXVXVXVXVXVXVXVXVXVXVXVXy ~ #.VXVXVXVXVXVXVXVX#.u e /.VXVXVXiX* $.VXVXVXVXVXVXVXVXVXVXVXVXVXVXVX",
"VXVXVXVXVXVXVXVXVXVXVXVXVXVXVXVXVXVXVXVXVXVXVXiX3.~ ~ !.8.3.y U r G e e 5 X 0.VXpXy #.- MXVXVXVXVXVXVXVXVXVXVXVXVXVXVXVX",
"VXVXVXVXVXVXVXVXVXVXVXVXVXVXVXVXVXVXVXVXVXVXVX8.q e 0 U 5.I.J.-XOXjX^.*X^.~.G F r #.E y %.VXVXVXVXVX9XVXVXVXVXVXVXVXVXVX",
"VXVXVXVXVXVXVXVXVXVXVXVXVXVXVXVXVXVXVXVXVXF y ~ !.eXcXvXjX;XxX-X;XOX$XjX*XyXcXeX0.~ q X $.%.VXVXVXVX$.VXVXVXVXVXVXVXVXVX",
"VXVXVXVXVXVXVXVXVXVXVXVXVXVXVXVXVXVXVXF ! ).pXkXuX*X^..X^.^.^.^.U.U.U.^.U.J.^.uXcXpX).#.4 4 H.VXwXiX%.VXVXVXVXVXVXVXVXVX",
"VXVXVXVXVXVXVXVXVXF VX%.VXVXVXVXVX! r wXzXeX*X.X^.5...G G 0 0 0 0 0 J ..5.5.~.[.*XeX).pXzX1.e 0.wXq 6.VXVXVXVXVXVXVXVXVX",
"VXVXVXVXVXVXVXVXVX$.VX6.(.u VXG.4 I.cXuXXX).v.{ < < 5 5 w r r w c r < # , 5 s H v.^.cXtXXXnXlX2.T   e.(.q VXVXVXVXVXVXVX",
"VXVXVXVXVXVXVXVXVX$.e.8.y 9.1.U cX:XOXOXL.G & $ ( ;.x.B._.B./.B.e.M.0.q.' g w 7 < s O.U.;XjXjXvXXX8.X e e VXVXVXVXVXVXVX",
"VXVXVXVXVXVXVXVXVX3.U 1.U 4 9.mX*XuX^.s $ 6 X.[._.'.N.x.<.<.<.<.g.<.<.*._ Y ( j.) 7 & s J.OX>X,XnXMX8.4 pXVXVXVXVXVXVXVX",
"VXVXVXVXVXVXVXG.6.8.8.U * ).nXpXuX5.7 a } v.z.n.b.V.b.g.g.g.M.M.g.c.x.g.} [ } k. XT.l.s . J =XyXtXkXcXG.8.VXVXVXVXVXVXVX",
"VXVXVXVXVXVXVXE ! F  .9 rXcXmXeX{ ; d }.}.b.n.m.c.n.C.V.V.V.M.g.k.k.k.j.h.y./ / n.{.'._.v.6 1 ^.uX.XmXmX3./.VXVXVXVXVXVX",
"VXVXVXVXVXVXVXe./.~ 9 ^.vXvXXXY < <._.N.V.C.c.V.C.n.m.c.c.h.C i i i f k t.k.y.V V.`.|.'.}.c.Y < L.OXtXNXkX! VXVXVXVXVXVX",
"VXVXVXVXVXVXVXVXD 0 rXxXjXfXR < v.b.b.V.C.c.A c.a.s.s.=.[ [ [ ' V V f 1 ; 1 V d.`  X`.`.}.'.`.H 6 X.cX*XNX(.~.iXVXVXVXVX",
"VXVXVXVXw.VXVXVXG ^.>XOXxXX.< { `.V.n.f.f V c.A s.A A s.g.a.=.s.>.>.>.-.' b p > x.:.|.|.n.2X'./ ^ 7 L.=XmXnX .* BXiXVXVX",
"VXVXVXVX$.VXVXS.D.,X<X=X[.6 Y _.N.V.f p =.A a.g.Z =.s.-.Z ] *.] =.*.:.>.g.*.b d ; x.x.|.b.} '.j.H G G cXXXvX~.e 0X6.sXVX",
"VXVXVXwX! VXpX .jX-X<X<XY 6 j.N.`.h p f.s.-.-.x Z *.A p : 1 1 ; : : 1 p x Z <.x.Z ; ` `. X`.j.{.^ l.6 J.:XtXnX8.0XM gXVX",
"VXVXVXVXF BX .eX*XyX<XY.a ( j. X] f -.g.A -.-.x -.z > d b b b ` V N x d 1 : : 1 &.1 ; [  XhX X].K K i.7 fX:XnX_.E U sXVX",
"VXVXVXVX%.1.D.kXeX<XfXs H b.'.b.1 g.*.x g.*.3 g.x z x Z ` b v N Z b m _ N v z 1 : ' d ; _  X Xj.^ K T.j X.*XcXMXe e.sXVX",
"VXVXVXiX1.D mX*X.X<X*X6 l.k.].V ] -.b &.-.x b Z : b &.` m B N v B m b B N N v t z 3 w w 1 x.qX^ {.T.) i.s OXuXnX9.~ M 9.",
"VXVXVXMX1.~.*X..0 xX( a b.b.n.C =.' f g.` z g.3 Z N b v b B N B N N B v v M B B c n d d : m |.} R.m.) z.s l.=XmX~.r q.~ ",
"VXVXF G.D.D.D.9 R xXs H z.m.n.l g.p f C.1 Z b z N N B N N B x z Q Z N N B M v c Q Y z 3 m 1 '.} m.3XP m.J L <XbXXX0 3.!.",
"VXVX).F 9 2.5.| J.yX6 h T.n.n.l A Z a.p x <.x b B B B B b x c z : < 2 t M M t 2 w @.d g , x q.} m.3Xu.Y.L L 1XvX^.5 L.v.",
"VXVXwXaXF.S | G *X1X7 H {.m.V.C a.s.b p -.b z N b x B B B B B B M c w 2 @ % 2 t 3 t n c c > V } m.3Xu.m.) H ^.vXL.S ^.^.",
"VXVXH.8.G.D Z.J >XU.H ^ ].m.m.C r.b p -.&.> x Q ` @.B B Q M Q B @.M M @.@.M q $ w 2 3 ` g d d c.n.3Xt.i.X.H ^.vX5.G G :X",
"VXVXF H.XXI 9 E.jXL.( j k.V.n.h.a d Z ' 3 M n B M c t w q 2 q 2 w 2 - 2 t u M %.2 w w 3 d ' ' c.n.].) z.l.G ^.cX.X5.| OX",
"w.o e 4 T D D 7XuXOX( g } 3Xn.n.1 n ` w z Q M 2 + X . . . . . .   o .     o q #.u 2 M > Y v j.k.R.R./ n.X.H #XcXvX*X,X5.",
"VX$.4 F D 4 F.lX^.yX( ( k m.m.V.' n t w @.3 2   o         . O o % X .   . . % 2 M t , N 1 ^ [ m.].m.) T.R X.OXvX-X.XxX| ",
"VXVXH.8.F.kXoX~.| cX{ l.a / y.].M.@ M B M %   # o o o     o                   . % t q z : [ V.m.3Xu.) b.J 5..XvX-X5X;X5.",
"VXVX8.8..XnXo.9 o.eX_.G z.a / C N.z M t .   o = = o o o O o . o .   o   o o o o     # z d }  Xn.hXC j.l.s .X%XlXjX.X;XA.",
"VXVX1.S.D.D.F D ! kXnXH b.^ [ C.` ' + . + . - o = = = o o o . O .   o O O     =   X + @ 1 '.n.n.n.k {.s +..XxX5X#X#X8XO.",
"VXVX1.G. .D D D e D 4.:X6 T./ x.}._ 1 @ @ +   -   o o o     . .         o O O o . + $ @ :.].'.2X/ z.p.s [.#XxX5X#X;X5XO.",
"VXVX1.8.F.F.F 4 mX2.D ;X( ( '.j.b.n.d @ @ + + . + .             X . X .   . O . # . ; : V.].V.R./ i.j U.<XjX6X7X#XjXI.J.",
"VXVX6.S.A.S.4.D e  .-X.XbXH j {.R.m.{.^ 1 ' 3 : + + . + $ & # . X   . # . . . + 3 ' ; } ].k.2Xj ) j J.<X%XlX5X#X-X,X| :X",
"VXVXE 8.!.A.S.D  .~.,X#X$X<X7 L P.{.z.n.} a N. Xx.` 3 @ . . # # . # @ . $ c x.B.7.: d.{.`.p.a u.L J.4X6X+XlX7XoX,X-XR NX",
"VXVX(.3.S.2.L.2.D.-X.XlXQ.%X&Xs j z.T.T.]./ 1 ^ hXdXdXqX}.x.{ Q { ;.<.N.dXdX7.1 f x.'.b.u.P p.K i.8X@X6X+X7XoX;X:X~.4.VX",
"VXVXzXU D.L.L.8.1.XXoX+X+X&X%X,XL 7 ) {.T.T.k.i > h c. XdXfXfXfXfXdXgXfX,.> a c.`.T.R.Y.) i.) 1XbXE.+X7X%X%XoX;XXX4.~.VX",
"VXVXVX* U 0.L.v.D.F.7X%XF.E.+X7X<XY.6 H l.].R.'.y.j i > i h } y.l.p.k 1 j m.R.p.h l.T.Y.Y.[.1X>X7XE.E.7X7X+X#X*X~.U ).VX",
"VXVXVXY 8 g 0.0.8.4.^.;XZ.7XK.W.$XbX[.J < K z.T.].n.c.j.k h a a > a k i.3X2XY.P ) i.Y.1X>XyXOX<XE.W.+XoX+X7XU.4.4.8 !.VX",
"VXVXVX3._ 0 ;.!.!.0.A.5XI 7XoXZ.E..XjX,X[.H 7 j p.n.].{.'.{.'.{.2X{.{.3XT.p.P L l.[.4XxX+XbXE.I.Z.E.lX;XE.I.5.L.U < /.VX",
"VXVXVX{ 9.m r ,.0.0.4.E.Z.F.lXoXF.U.jX.X<X<XY.) a s H ) z.b.z.z.u.) k s a J i.Q.4X@X$XQ.+.I 9 o.Z.-X;XE.D.O.5.v.r w aXVX",
"VXVXVX7.{ { d 8 7.v.D.A.K.I F.oXS S E.E.$X<X1XxX>XY.L 7 s < 1 1 s J L i.Q.8X8X&XQ.6X8X| I O.o.| .XkXI.5.L.P._.Y g M gXVX",
"VXVXVXVXY q._ d 3 , R L.Z.F.E.kXF.S J I E.6X@X@X<X&X<X8X>X1X<X<X4X4X&X4X&X&X@XQ.&XK.W.Z.;XjXjXjXjXtXA.5.L.R R w Q #.VXVX",
"VXVXVXVXx.,.&.Z c 3 Y A.o.F.F.S.OXA.E.6X;X%XE.%X+X;X%X8XZ.1X<X$X@X@X&X7X@X+X@X7X+XE.K.| U.:XjX*XU.5.A.X.g & , z &.e.VXVX",
"VXVXVXVXVX' <.` v q.< G ^.5.4.D.L..XjX5XE.6X7X+X+X6XE.#XS U.OXU.8X&X@XQ.%X@X+X+X+X7X5X6X5X.XJ.A.D.4.L.r < Q W @.;.B.VXVX",
"VXVXVXVXVXVX_ d.d } Y 7 R L.0.0.A.F.D.I.E.W..X7X;X;X=X<Xs L.L.R 8XQ.Q.@X&X@X+X%X7X+X.XK.F.F.O.A.D.0.r 7 Y c Q 7.@.VXVXVX",
"VXVXVXVXVXVXVX_ :./ x.' @ U _.0.S.8.4.F.F.4.I.%XoXoX-X:XR L.0.G 4X&X$X%X6X5X$X.XI.L.F.o.o.Z.A.A...8 < d W ' @.;.aXVXVXVX",
"VXVXVXVXVXVXVXx.j.] _ } ,.1 $ 9.G.S.0.4.o.o.I.oX7XjXjX~.5 9 D T ;XjXrX.XI.I.D.F.4.D.G.~.S.2.T r , d { ` &.>.;.M.VXVXVXVX",
"VXVXVXVXVXVXVXVX' ,.x.=.:.} f < r T 8.~.~.!.D.D.G.D.o.T D D e 9 T  .S.G.G.8.8.2.8. .U q 5 * < 5 m ] j.>.-.&.B.VXVXVXVXVX",
"VXVXVXVXVXVXVXVXVXVX' g.d.a.] Z 1 < , , < 8 r T 2...3.0.(.(.G.G./.2.F 9 * X * * . # < 8 w z n Z g.a.=.s.*.B.VXVXVXVXVXVX",
"VXVXVXVXVXVXVXVXVXVXVXZ =.g.] s.` Z v z w 8 < < . $ & * * X 5 ! X X * w r r r g Y N n v v Z &.s.*.a.*.>.C.VXVXVXVXVXVXVX",
"VXVXVXVXVXVXVXVXVXVXVXVXd.*.s.s.x.f.=.A b V V V Z m d d g w 3 1 g g m Y Y ^ ] d.C V V l V A [ a.g.s.-.VXVXVXVXVXVXVXVXVX",
"VXVXVXVXVXVXVXVXVXVXVXVXVXVX*.] a.s.s.a.a.A A Z Z A / ] V _ b V m ^ V h k [ y.u.h.r.C C t.r.h.f.=.>.VXVXVXVXVXVXVXVXVXVX",
"VXVXVXVXVXVXVXVXVXVXVXVXVXVXVXVX*.] a.f.a.a.a.a.a.a.a.a.t.C l l l C / / r.u.r.u.u.r.r.h.h.r.[ :.VXVXVXVXVXVXVXVXVXVXVXVX",
"VXVXVXVXVXVXVXVXVXVXVXVXVXVXVXVXVXVXd.' =.d.f.=.a.a.a.h.r.t.C l l C t.r.h.y.t.t.u.y.r.t./ d.VXVXVXVXVXVXVXVXVXVXVXVXVXVX",
"VXVXVXVXVXVXVXVXVXVXVXVXVXVXVXVXVXVXVXVXVXj.] ] a.a.t.r.t.t.C l l A t.r.a.r.r.a.[ } j.VXVXVXVXVXVXVXVXVXVXVXVXVXVXVXVXVX",
"VXVXVXVXVXVXVXVXVXVXVXVXVXVXVXVXVXVXVXVXVXVXVXVXV.m.h.y.u.t.t.[ a.g.C.C.C.VXVXVXVXVXVXVXVXVXVXVXVXVXVXVXVXVXVXVXVXVXVXVX"
};
