/* XPM */
static char *_dc0f5375d5d42ff983b7b760128b904YT8SFlWE8xkQaIDS[] = {
/* columns rows colors chars-per-pixel */
"60 60 201 2 ",
"   c None",
".  c #020202",
"X  c #0C0B0A",
"o  c #090807",
"O  c #100F0C",
"+  c #15120E",
"@  c #141311",
"#  c #191612",
"$  c #1D1914",
"%  c #1D1B19",
"&  c #221C16",
"*  c #221E19",
"=  c #26221C",
"-  c #2A241C",
";  c #2E291E",
":  c #31291F",
">  c #292520",
",  c #2E2923",
"<  c #292827",
"1  c #332C24",
"2  c #342F28",
"3  c #392F23",
"4  c #3B3126",
"5  c #363129",
"6  c #3A342C",
"7  c #3E382F",
"8  c #3F3930",
"9  c #383735",
"0  c #443A2C",
"q  c #483D2E",
"w  c #423729",
"e  c #443D33",
"r  c #4C3F3C",
"t  c #4C3F33",
"y  c #474036",
"u  c #4C4132",
"i  c #44413C",
"p  c #4C443A",
"a  c #4F483D",
"s  c #504433",
"d  c #534A3D",
"f  c #5B4D3C",
"g  c #534737",
"h  c #5D503D",
"j  c #61523E",
"k  c #494947",
"l  c #564D42",
"z  c #584F43",
"x  c #564B4F",
"c  c #5B5144",
"v  c #5F5649",
"b  c #5A544B",
"n  c #5E5C57",
"m  c #625543",
"M  c #655A42",
"N  c #62564B",
"B  c #645A4C",
"V  c #6B5D4C",
"C  c #6C5B45",
"Z  c #615E57",
"A  c #6A5C52",
"S  c #6A5E5C",
"D  c #715F58",
"F  c #73634C",
"G  c #7C6C4E",
"H  c #78664E",
"J  c #6C6253",
"K  c #66625B",
"L  c #6C6159",
"P  c #736553",
"I  c #756956",
"U  c #7C6B53",
"Y  c #72645B",
"T  c #756A5B",
"R  c #796C5B",
"E  c #7D715E",
"W  c #666560",
"Q  c #746665",
"!  c #746A60",
"~  c #7A6A6B",
"^  c #7A6D61",
"/  c #7E7361",
"(  c #79736A",
")  c #7E6D72",
"_  c #757572",
"`  c #816F57",
"'  c #82725C",
"]  c #8A765B",
"[  c #8C7B5B",
"{  c #836F6C",
"}  c #826D66",
"|  c #837664",
" . c #867965",
".. c #8E7D65",
"X. c #8B7E6A",
"o. c #88766B",
"O. c #947E61",
"+. c #817275",
"@. c #887A7B",
"#. c #957C79",
"$. c #957C77",
"%. c #8F816C",
"&. c #968267",
"*. c #94846D",
"=. c #99856A",
"-. c #9C8A6E",
";. c #9A8263",
":. c #8F8475",
">. c #948571",
",. c #978872",
"<. c #9A8B75",
"1. c #9C8E7A",
"2. c #97857C",
"3. c #A28B6D",
"4. c #AB9A6C",
"5. c #A28F73",
"6. c #A59074",
"7. c #AC9576",
"8. c #A4947D",
"9. c #A8967D",
"0. c #AA997E",
"q. c #B39C7D",
"w. c #B49C7B",
"e. c #BAA777",
"r. c #8D7B82",
"t. c #8E8C84",
"y. c #958187",
"u. c #9B968A",
"i. c #9C8890",
"p. c #939292",
"a. c #A1898A",
"s. c #A28887",
"d. c #AD9C83",
"f. c #A89780",
"g. c #B09F85",
"h. c #A38D95",
"j. c #AC9295",
"k. c #B79A98",
"l. c #ADA38F",
"z. c #B4A185",
"x. c #BBA484",
"c. c #B5A48A",
"v. c #BAA78B",
"b. c #BDA98D",
"n. c #BFA887",
"m. c #BEAB90",
"M. c #A8A69E",
"N. c #BBA2AC",
"B. c #B7B4A9",
"V. c #BDBCB6",
"C. c #A7A7A7",
"Z. c #C4AC8B",
"A. c #C9AF8C",
"S. c #C0A786",
"D. c #C6B08D",
"F. c #C9B08D",
"G. c #C2AE92",
"H. c #C5B195",
"J. c #CBB594",
"K. c #CAB699",
"L. c #CDB99B",
"P. c #C1B49D",
"I. c #D2BD9E",
"U. c #D0B896",
"Y. c #CBBDA6",
"T. c #D4BFA0",
"R. c #CCAEB3",
"E. c #C6ACB7",
"W. c #CDB2BD",
"Q. c #D0AFB1",
"!. c #D6C1A1",
"~. c #D9C3A4",
"^. c #D6C6AD",
"/. c #D9C7AA",
"(. c #C8C5B9",
"). c #C7C4BA",
"_. c #DFCCB1",
"`. c #DFD0B8",
"'. c #E4D4BC",
"]. c #DABDC9",
"[. c #DBBAC1",
"{. c #E0BFC5",
"}. c #CDCCC7",
"|. c #DCD9CE",
" X c #E8C6CC",
".X c #E7DCC6",
"XX c #E2C4D1",
"oX c #EBCAD4",
"OX c #ECCCDA",
"+X c #F0CDD5",
"@X c #E2DED2",
"#X c #F2D2DF",
"$X c #EAE7DB",
"%X c #FAD7E4",
"&X c #FAD8E6",
"*X c #FDDBE9",
"=X c #F4D3E1",
"-X c #F2EFE2",
";X c #F9F4E5",
":X c #FDFAED",
">X c #F7F4E7",
/* pixels */
"                                                                                                                        ",
"                        8 e 7 1                                                                                         ",
"                  6 T <.0.d.9.X.T z -                                                                                   ",
"                1 ,.L.!.~.K.X.A A A A e                                                                                 ",
"                B I.!.!.!.>.Y R.R.s.A B z -                                                                             ",
"                P !.!.!.!. .@.%X*X%XW.o.B B 1                                                                           ",
"                y v.!.!.!.d.S h.XX&X*X X#.B A ,                                                                         ",
"                  z f.L.!.!.g.R S y.W.#XoX2.B B *                                                                       ",
"                    1 B %.0.v.b.0.| A +.N.[.$.N d                                                                       ",
"                      o O = 0 m U &.6...J ) j.{ v e                                                                     ",
"        2 z P E  .E v y 8 5 * X X = u U -...L ~ A c 1                                                                   ",
"      J 8.m.K.I.v.I A D N z z z e = X + 4 P =.T l p p                                                                   ",
"    J H.!.!.!.I.| {  X+X XR.a.Y N B c 6 O X 0 ' I , y 7                                                                 ",
"    X.~.!.!.!.T.>.Q N.W.].XXoX{.k.} A J v 5   $ c B e v $                                                               ",
"    d 7.J.I.!.!.K.>.^ ! Q Q ~ +.y.a.#.Y V J z @ X 0 c | y   o .                                                         ",
"      4 M [ 6.q.n.Z.Z.x.z.g.0.1.X.^ L N r 6 B J =   1 ' V 2 , o                                                         ",
"          # = 3 q f C H U ] O.=.-.-.<.*.E z y | X.1   - c X.6 @ X $                                                     ",
"                          + $ * - : 4 u m P R *.H.,.5 = 8.9.I d e R J v e                                               ",
"                                            = e T z.<. .L.L.m.B X.J.G.K.d./ 7                                           ",
"                                                # P K.I.H.z.H.d.L.!.!.H.>.f.9.d                                         ",
"                                              1 E m.T.!.f.X.I.L.b.K.!.1.= 6 c.v.d                                       ",
"                                            5 >.I.!.!.!.b.b.T.1.b J H.z.6 - <.L.f.c               a c #                 ",
"                            . .           > X.I.!.!.!.!.T.!.H.( k # <.!.X.6 y T l.m. .y         1 f.G.B $               ",
"                                          B K.!.!.!.!.!.!.!.K.z @ + X.d.e X . K @X.XL.B X       d K.!.H. .,             ",
"                                        = >.~.!.!.!.!.!.!.!.!.%.= y >.! n k i t.-X;XP.B > + c 1 J T.!.~.H.c             ",
"                                        e m.!.!.!.!.!.!.!.!.!.I.d.8.2.).-X$X$XV.}.;X`.G.d X J *.f.!.!.!.Z.f             ",
"                                        B I.I.L.!.!.!.!.!.!.!.!.!.c.).:X:X:X:X).M.;X'.v.6 . = <.T.!.!.I.3.3             ",
"                                        J d.*.d.H.K.!.!.!.!.!.!.I.Y.$X>X:X:X:XB.W B.Y.8.1     B L.I.J.w.d               ",
"                                        d R 9.K.K.L.T.!.!.!.!.!.!..XB.t.).|.(._ _ / v.z       v G.=.U u                 ",
"                                        5 ,.H.H.H.H.L.!.!.!.!.!.!.'.@.X > 9 < p.}.:. .=       / -.-                     ",
"                                      X v m.L.L.I.I.I.!.!.!.!.!.T._.u.% . . X C.V.L e       6 *.c                       ",
"                                      o p H.~.!.!.!.!.!.!.!.!.!.!.~.^.u.Z Z v n K 6         J I &                       ",
"                                        d d.L.L.!.!.!.!.!.!.!.!.!.!.!./.^.^.G.' e         c F 1                         ",
"                                      o $ d ' *.v.z.b.J.I.!.!.!.!.!.!.!.I.D.&.u       - f m 1                           ",
"                                          + # 4 u 0 s m U &.7.x.x.x.q.5.' d =       4 d u                               ",
"                                            .           + & ; 3 q u t g $ $ 1 4 0 u 0 1                                 ",
"                                                    > 6 e e e 6 C G A k.r = u q 4 =                                     ",
"                                                * z B N v N J E 7.x.Y E.h.%                               z E X.X.B *   ",
"                                              $ J T 7         , v z.| h.XXi.              y a *       , / m.!.~.~.b.p   ",
"                                              c / %               P >.+.#X=X].r.      6  .v.b.c     1 X.L.!.!.!.I.7.4   ",
"                                            , 8.<.a 8 %           e <.Y XX*X*X].x   6 <.I.!.~.*.#   / L.!.!.I.x.` 4     ",
"                                          * E L.T.L.G. .%       - 7 1.Y E.*X*X&X) # | I.!.!.!.d.* z b.!.I.S.] u #       ",
"                                        = | K.!.L.,.X./ *     w [ [ g. .@.OX=XW.S R m.!.!.!.!.c.e <.!.J.3.j =           ",
"                                        N L.!.!.I.P $         g 4.e.J.m.Y Q ~ L >.L.!.!.!.!.!.b.X.L.A.O.w               ",
"                                        P !.!.!.!...&       1 [ e.e.J.!.K.g.d.G.I.K.I.!.!.!.!.L.K.A.[ 3                 ",
"                                        p G.!.!.J.F + # l >   M 4.e.D.T.!.!.!.!.J.5.x.q.q.J.!.!.J.;.4                   ",
"                                        $ P q.w.F -   8 f.B   ; M G -.L.!.!.!.!.m.V j 0 0 ` J.I.7.s                     ",
"                                          $ 4 4 +     / I.>.=     # B K.!.!.!.!.9.-       = &.F.F +                     ",
"                                                    J H.T.c.a       R I.!.!.!.L.J           f O.3                       ",
"                                                e / H.!.9.%.%.6 = c c.!.!.!.!.8.1           $ :                         ",
"                                    6 y d z J  .d.I.!.H.d d H.9.,.b.!.!.!.!.b.z                                         ",
"                                1 ' d.v.b.G.K.T.~.!.J.U + y G.~.~.!.!.!.!.v.m                                           ",
"                                m J.!.!.!.!.!.!.I.b.P *   e z.~.!.!.!.L.6.d                                             ",
"                                m Z.I.I.I.I.U.Z.3.j $     = ' Z.J.D.7.P 1                                               ",
"                                ; F 3.7.7.3.] j 3           : f C h 4                                                   ",
"                                    : 4 4 : *                                                                           ",
"                                                                                                                        ",
"                                                                                                                        ",
"                                                                                                                        ",
"                                                                                                                        "
};
