/* XPM */
static char *_ce1c55c35e04ac6e0b9ff58b98a42a10KvIsKFv18GYW2em[] = {
/* columns rows colors chars-per-pixel */
"60 72 203 2 ",
"   c None",
".  c #5C3E0D",
"X  c #523D0C",
"o  c #6B2403",
"O  c #6E2C06",
"+  c #7D2602",
"@  c #752A04",
"#  c #7A2A03",
"$  c #732703",
"%  c #653007",
"&  c #6B3206",
"*  c #6C3B07",
"=  c #653608",
"-  c #6B3409",
";  c #633A0A",
":  c #6F3809",
">  c #7D3406",
",  c #7A3408",
"<  c #7B3D0B",
"1  c #3D5516",
"2  c #375D17",
"3  c #3B5C16",
"4  c #3C5D19",
"5  c #355D1A",
"6  c #2B7A0F",
"7  c #2B6617",
"8  c #2B6A16",
"9  c #2D661C",
"0  c #276D1E",
"q  c #2A6B1B",
"w  c #32631A",
"e  c #38631B",
"r  c #346B19",
"t  c #356914",
"y  c #2C7412",
"u  c #2E7C13",
"i  c #26731E",
"p  c #2C731A",
"a  c #2B7C1A",
"s  c #27791D",
"d  c #357015",
"f  c #3D7311",
"g  c #317E12",
"h  c #296720",
"j  c #256E21",
"k  c #296C20",
"l  c #257124",
"z  c #287423",
"x  c #297A23",
"c  c #267328",
"v  c #297828",
"b  c #4E480F",
"n  c #54440E",
"m  c #52490E",
"M  c #5A400B",
"N  c #5E5C0E",
"B  c #545D0C",
"V  c #4C4C11",
"C  c #5D4C12",
"Z  c #435413",
"A  c #485716",
"S  c #4B5911",
"D  c #435815",
"F  c #634F0B",
"G  c #77450E",
"H  c #67500C",
"J  c #68520A",
"K  c #7A530F",
"L  c #754911",
"P  c #446D0F",
"I  c #486B0F",
"U  c #4D670E",
"Y  c #53640E",
"T  c #4F6711",
"R  c #5D6710",
"E  c #576C11",
"W  c #417712",
"Q  c #842601",
"!  c #892702",
"~  c #822A04",
"^  c #8C2902",
"/  c #922D03",
"(  c #813A06",
")  c #8A3C08",
"_  c #8A3507",
"`  c #933405",
"'  c #9C3202",
"]  c #973907",
"[  c #993807",
"{  c #943C0A",
"}  c #9B3D0A",
"|  c #A23703",
" . c #A33A06",
".. c #AA3C05",
"X. c #A23E09",
"o. c #834008",
"O. c #88410A",
"+. c #8A4D0E",
"@. c #95410B",
"#. c #9D420C",
"$. c #904E0F",
"%. c #AD4107",
"&. c #A4420C",
"*. c #AC450B",
"=. c #AE490E",
"-. c #B14508",
";. c #B34A0C",
":. c #B84F0D",
">. c #B7500F",
",. c #B9510F",
"<. c #B04D10",
"1. c #B65211",
"2. c #BA5411",
"3. c #2E830E",
"4. c #328D0D",
"5. c #31860E",
"6. c #2F9D07",
"7. c #2E920A",
"8. c #319E07",
"9. c #36970E",
"0. c #38950F",
"q. c #359B0B",
"w. c #399D0D",
"e. c #2E8316",
"r. c #2D8419",
"t. c #2F891A",
"y. c #2F8A15",
"u. c #338314",
"i. c #348C14",
"p. c #398F12",
"a. c #308518",
"s. c #318C1C",
"d. c #349213",
"f. c #3A9611",
"g. c #369911",
"h. c #3B9A11",
"j. c #33911A",
"k. c #35A307",
"l. c #39A707",
"z. c #34AA07",
"x. c #3CAB07",
"c. c #37A108",
"v. c #3CA30C",
"b. c #3EAB0A",
"n. c #36B207",
"m. c #3DB307",
"M. c #3EBC07",
"N. c #3BBD08",
"B. c #3DA112",
"V. c #2D8322",
"C. c #42A70D",
"Z. c #43AC0C",
"A. c #41B307",
"S. c #44B508",
"D. c #47B808",
"F. c #4ABC08",
"G. c #45B809",
"H. c #42A511",
"J. c #42AB12",
"K. c #3FD308",
"L. c #42C408",
"P. c #4EC108",
"I. c #43CE08",
"U. c #51C508",
"Y. c #56C908",
"T. c #5ACD08",
"R. c #5BCE08",
"E. c #59CD08",
"W. c #58CB08",
"Q. c #42D208",
"!. c #47D308",
"~. c #42D308",
"^. c #4AD208",
"/. c #5DD108",
"(. c #5ED308",
"). c #5DD208",
"_. c #5FD408",
"`. c #5FD709",
"'. c #5DD509",
"]. c #5AD409",
"[. c #5ED909",
"{. c #5DDD09",
"}. c #5CDA09",
"|. c #57D709",
" X c #60D508",
".X c #61D609",
"XX c #62D708",
"oX c #62D809",
"OX c #62DA09",
"+X c #64DB09",
"@X c #66DB09",
"#X c #62DE09",
"$X c #66DE09",
"%X c #63DD09",
"&X c #66E009",
"*X c #66E009",
"=X c #69E109",
"-X c #6AE209",
";X c #69E209",
":X c #6BE409",
">X c #6FE709",
",X c #6DE509",
"<X c #68E109",
/* pixels */
"                                                      :X=X                                                              ",
"                                              >X    :X:X=X=X:X=X=X                                                      ",
"                                          >X=X$X=X=XoX@XoX X$X=X=X=X=X                                                  ",
"                                          >X_.W./.oX/.W.W.W.W./.R./.$X=X                                                ",
"                                      >X>X$XW.W././.W.W.W.W.W.W.W.W. X=X=X=X                                            ",
"                                    >X$X@X XW.W.W.W.W.W.W.W.W.W.W.W.R./.$X=X                                            ",
"                                    >XR.W.W.W.W.W.W.W.W.W.W.W.W.W.W.W.W. X=X                                            ",
"                                >X>X@XW.W.W.W.R.oXoX X/.W.W.W.W.W.W.W.W.oX=X                                            ",
"                                >XoXW.W.W.W.R.@X/.W.W.W.W.Y.W.W.W.W.W./.$X=X                                            ",
"                                >X/.Y.W.W.W. XR.W.W.W.W.W.W.W.W.W.W.W./.@X$X                                            ",
"                            >X>X>X/.W.W.W.W.R.W.W.W.W.W.W.W.W.R.R././.W.W. X XA.S.P.|.}.{.                              ",
"                            >X>XoX@X XW.W.W.W.W.W.W.W.W.W.W./. X X X/./.W.W.R.P.A.G.P.P.|.{.                            ",
"                            >X=X/. XW.W.W.W.W.W.W.W.W.W.W.W.W.W.W.W.W./. XW.W.W.G.S.G.D.P.].}.#X                        ",
"                            @XR.@X/.Y.W.W.W.W.W.W.W.W.W.W.W.W.W.W.W.W.W.R.R.W.Y.D.S.G.D.F.F.U.W.}.                      ",
"                          >X/.R.oXW.W.W.W.W.W.W.W.W.W.W.W.W.W.W.W.W.W.W.W.W.W.Y.G.S.G.D.F.F.F.P.W.#X                    ",
"                          >XR.W.R.W.W.W.W.W.W.W.W.W.W.W.W.W.W.R.R.W.W.W.W.W.W.U.S.S.G.F.F.F.F.P.W.#X                    ",
"                          >X XW.W.W.W.W.W.W.W.W.W.W.W.W.W.W.W.W._./.W.W.W.Y.F.v.A.S.G.F.P.F.F.P.W.$X                    ",
"                          oXW.W.W.W.W.U.W.W.W.W.U.U.U.U.U.W.W.U.W._._.W.U.B.i.w.A.S.G.D.U.W.P.P.U.oX&X                  ",
"                          W.U.U.U.U.U.U.U.U.U.U.U.U.U.U.U.U.U.U.U.W._.W.U.Z.i.b.A.G.G.D.F.U.W.P.P._.&X                  ",
"                          U.U.U.U.U.U.U.U.U.U.U.U.U.U.U.U.U.U.U.U.U.R.W.U.P.h.b.A.G.G.F.F.F.W.U.W._.W.|.                ",
"                          U.U.U.U.U.U.U.U.U.U.U.U.U.U.U.U.U.U.U.U.U.U.U.U.U.h.v.b.G.G.F.F.F.U.U.W._.P.U.{.              ",
"                  ^.^.^.  U.U.U.U.U.U.U.P.P.U.U.U.U.U.U.U.U.U.U.P.P.U.U.U.F.i.y.v.G.G.F.F.F.P.P.U.oXU.P.{.{.            ",
"                !.L.S.G.D.P.P.P.U.P.P.P.P.F.P.P.P.P.P.P.P.P.P.P.P.P.P.P.F.H.r.d.A.G.D.F.F.F.P.W.}._.F.F.}.#X            ",
"                !.m.x.x.S.F.P.P.P.P.P.P.F.h.Z.G.P.P.P.P.P.P.P.P.P.F.Z.H.f.a.d.b.S.G.D.F.F.F.P.W.U.F.D.F.W.{.{.#X#X      ",
"              !.I.m.x.m.A.C.F.P.P.P.P.P.Z.u.u.f.F.P.F.P.F.F.F.F.F.F.B.e.i.9.b.A.A.G.D.F.F.F.P.U.P.G.D.F.F.P.U.U.oX      ",
"          ~.~.L.m.x.x.m.A.0.C.F.F.F.F.F.h.u.u.i.Z.F.F.F.F.F.F.F.F.F.Z.u.c.x.x.A.A.G.G.F.F.F.P.U.P.G.F.U.U.U.P.P._.&X    ",
"        ~.~.M.l.x.x.x.m.v.u.u.h.S.F.Z.f.u.u.u.u.i.C.C.F.F.F.F.F.F.F.B.a.9.x.x.w.v.G.D.F.F.F.P.P.F.P.W.U.U.U.P.W.#X&X    ",
"      ~.~.I.m.l.x.x.x.m.b.i.u.u.p.v.i.u.u.u.u.u.u.u.i.Z.F.G.F.F.G.h.i.a.y.9.v.e.g.G.D.F.F.F.G.S.D.U.F.F.F.F.P.R.&X$X    ",
"    K.~.N.x.l.m.L.m.x.x.A.b.u.u.u.u.u.p q p a u.u.u.u.i.h.d.Z.F.Z.e.r.e.r.r.r.r.i.b.D.F.F.F.G.A.F.F.D.F.F.F.U._.&X&X$X  ",
"    K.N.k.k.M.L.x.x.x.x.b.w.u.u.u.u.u.g q q q p a u.u.u.u.e.i.f.i.e.a a r.r.r.r.r.d.G.F.F.D.A.A.G.G.F.F.F.F.P.].$X&X&X  ",
"    K.n.k.l.L.m.l.x.x.x.b.i.g u.u.u.u.u.q q q q q a u.u.u.e.a e.a a a a a r.r.r.r.r.Z.F.F.A.A.A.G.D.F.F.F.F.P.U._.}.&X=X",
"    K.n.k.l.m.x.x.x.x.x.A.0.u.u.u.u.u.u.q q q q q p a a a p q p q 0 0 i i a r.r.r.r.B.F.F.A.A.S.G.D.F.F.F.F.P.P.W.].&X=X",
"    K.n.k.l.l.l.x.x.x.l.9.u.u.u.u.u.u.u.p q q q q q q q q q q q q q w 5 h i s a r.r.s.h.b.A.A.S.G.D.F.F.F.F.P.P.U.oX=X  ",
"  n.z.z.k.l.l.l.x.x.x.4.u g u.u.u.u.p p q q q q q q q 9 V 2 q q q q b o 1 j j j a r.r.i.b.m.v.b.S.G.F.F.F.F.P.P.W.$X    ",
"  6.8.k.k.l.l.l.l.x.9.u u g u.g g g q q q q 3 Z 9 q q 9 % n q q q q X o 1 0 0 j j l a e.b.b.t.t.B.G.F.F.F.F.P.P.U.].    ",
"  6.8.k.k.k.c.q.x.x.4.u u g u.y q q q q q q Z & = V 3 2 = . q q q q ; o 2 0 0 j j j a r.d.g.r.t.Z.D.F.F.F.F.P.P.U.U.R.  ",
"  8.8.q.8.4.3.q.x.l.u.u u u u 8 q q q q q q q 2 M @ @ @ # ; q q q w - O w 0 q j j l a r.r.r.r.r.v.D.F.F.F.F.P.P.U.P.    ",
"  6.8.3.3.u 3.c.l.q.u u u y q q q 7 7 q q q q q q 3 n & # : r u q 5 , - 9 q q q j j s a r.r.r.r.d.Z.Z.B.G.S.B.J.J.B.    ",
"6 7.7.y y y u 3.5.u u u u p q 7 7 7 7 q q q q q q q q d F , f g q A ~ ; q q q q q 9 j j s r.r.r.r.t.s.t.j.j.s.s.        ",
"y 6 y y y y u u u u u u u 8 7 n Z 7 7 7 q q q q q y g g N ( P g p C _ m q q q 0 Z . h j j z r.r.r.r.r.t.s.s.s.s.s.      ",
"    y y y y u u u u y p 7 q 7 = = t 7 q q q q q p g g g N _ B u.d G _ D q q 0 e - n k j j l x a r.r.t.t.s.s.s.s.V.      ",
"    y y y y u y 8 8 7 8 7 7 7 m # m 7 q q q 8 p y g g g K {   e.T { < w p 0 e G - w j j j j l l x r.r.t.s.t.V.x         ",
"      y y y y 7 7 7 7 g g p 7 d * > S p g g g g g g g     } _   K } H y u r L , 4 j j j j z z l l x x x x v c v         ",
"        y 8           g g g g g I ( ( P g g g g g g g     } `   #.{ U e.W K ) S p p p p a g g p l l l l c c c c         ",
"                        g g g g g Y @.o.I g g g g g     } #.} } #.O.f E +.) Y g g g g g g g g       c c   c c           ",
"                        g g g g g g R } `               #.&.&.&.#.{ $.@.) J g g g g g g                                 ",
"                                      #.} `             &.&.&.&.&.#.} `             g                                   ",
"                                        &.X.[           &.*.&.} ] ` `                                                   ",
"                                          &.&.}         *.=.*.X.`                                                       ",
"                                            *.&.} [   &.=.=.*.&.                                                        ",
"                                              *.*.&.%.*.<.=.*.X.                                                        ",
"                                              *.*.*.*.=.1.=.*.X.                                                        ",
"                                                =.;.;.1.1.=.*.X.                                                        ",
"                                                ;.;.1.2.1.=.*.                                                          ",
"                                                  >.2.2.;.*.*.                                                          ",
"                                                  ;.2.,.;.;.%.                                                          ",
"                                                  ;.,.;.*.*.X.                                                          ",
"                                                  -.:.;.*.*.X.                                                          ",
"                                                  %.:.;.*.*. .                                                          ",
"                                                  X.:.;.%.*. .                                                          ",
"                                                   .;.-.%.%. .                                                          ",
"                                                   .-.-...%. .`                                                         ",
"                                                   .%.%. ... .`                                                         ",
"                                                `  ...%. .'  ./                                                         ",
"                                                / | ....| ` | / ^                                                       ",
"                                              ^ / | | | | / / / ^                                                       ",
"                                            ^ ^ / ' / ' | ' ^ ^ ^ Q                                                     ",
"                                          ! ^ ^ ^ ' / ^ ' ' ^ ! ! ! !                                                   ",
"                                        ! ! Q ~ ! ^ ^ ! / ' ^ ! ! + Q Q                                                 ",
"                                      # ~ # @ # ! ! ! ! ! ^ ^ ! ! Q @ # +                                               ",
"                                                Q ~ ~ Q Q Q # + + + + @ @ $ $                                           ",
"                                                @   @ @ @ @                                                             "
};
